<?xml version="1.0" encoding="utf-8"?>
<!-- Generator: Adobe Illustrator 15.0.1, SVG Export Plug-In  -->
<!DOCTYPE svg PUBLIC "-//W3C//DTD SVG 1.1//EN" "http://www.w3.org/Graphics/SVG/1.1/DTD/svg11.dtd" [
	<!ENTITY ns_flows "http://ns.adobe.com/Flows/1.0/">
]>
<svg version="1.1"
	 xmlns="http://www.w3.org/2000/svg" xmlns:xlink="http://www.w3.org/1999/xlink" xmlns:a="http://ns.adobe.com/AdobeSVGViewerExtensions/3.0/"
	 x="0px" y="0px" width="287px" height="65px" viewBox="0 0 287 65" overflow="visible" enable-background="new 0 0 287 65"
	 xml:space="preserve">
<defs>
</defs>
<path fill="#002A3A" d="M69.673,26.083v3.286h6.791v3.31h-6.791v6.815h-3.702V22.823h10.812v3.26H69.673z"/>
<path fill="#002A3A" d="M84.092,27.53c3.678,0,6.203,2.23,6.203,6.179c0,3.946-2.525,6.079-6.203,6.079s-6.179-2.133-6.179-6.079
	C77.913,29.761,80.414,27.53,84.092,27.53z M84.092,37.067c1.644,0,2.573-1.274,2.573-3.407c0-2.183-0.906-3.434-2.573-3.434
	s-2.549,1.275-2.549,3.434C81.543,35.816,82.449,37.067,84.092,37.067z"/>
<path fill="#002A3A" d="M103.758,39.494h-3.578V33.61c0-1.789-0.075-3.04-1.84-3.04c-1.496,0-2.132,1.177-2.132,2.771v6.153h-3.58
	v-11.67h3.53v1.446c0.562-0.956,1.838-1.74,3.505-1.74c1.35,0,2.379,0.368,3.065,1.128c0.735,0.833,1.029,1.643,1.029,4.217V39.494z
	"/>
<path fill="#002A3A" d="M114.842,28.879v-6.056h3.58v16.671h-3.58v-1.078c-0.564,0.637-1.814,1.372-3.432,1.372
	c-3.31,0-5.418-2.451-5.418-6.128c0-3.556,2.182-6.13,5.442-6.13C113.127,27.53,114.253,28.168,114.842,28.879z M112.269,30.252
	c-1.667,0-2.648,1.323-2.648,3.408c0,2.133,0.907,3.432,2.648,3.432c1.593,0,2.672-1.397,2.672-3.432
	C114.94,31.624,113.861,30.252,112.269,30.252z"/>
<path fill="#002A3A" d="M129.042,31.379c-0.858-0.784-2.011-1.274-3.163-1.274c-0.809,0-1.521,0.27-1.521,0.858
	c0,0.612,0.542,0.784,1.742,1.029l1.838,0.393c1.888,0.392,3.604,1.152,3.604,3.383c0,2.722-2.379,4.021-5.148,4.021
	c-2.673,0-4.928-1.176-5.982-2.622l2.255-1.815c0.712,0.98,2.108,1.79,3.728,1.79c1.202,0,1.814-0.393,1.814-1.029
	c0-0.662-0.712-0.784-1.496-0.933l-1.838-0.366c-1.177-0.222-2.184-0.614-2.894-1.227c-0.637-0.54-1.005-1.3-1.005-2.28
	c0-2.77,2.673-3.775,4.977-3.775c2.182,0,3.923,0.809,5.099,1.937L129.042,31.379z"/>
<path fill="#002A3A" d="M151.308,39.494h-3.58V33.61c0-1.789-0.074-3.04-1.838-3.04c-1.496,0-2.134,1.177-2.134,2.771v6.153h-3.579
	v-11.67h3.529v1.446c0.564-0.956,1.839-1.74,3.506-1.74c1.35,0,2.379,0.368,3.066,1.128c0.734,0.833,1.029,1.643,1.029,4.217V39.494
	z"/>
<path fill="#002A3A" d="M164.28,36.577c0,0.735,0.098,0.98,0.612,0.98h0.172v2.06c-0.538,0.098-1.08,0.147-1.667,0.147
	c-1.03,0-1.986-0.196-2.23-1.055h-0.024c-0.54,0.589-1.398,1.078-3.286,1.078c-2.574,0-4.216-1.323-4.216-3.751
	c0-2.23,1.691-3.113,4.167-3.506l2.427-0.392c0.637-0.099,0.736-0.172,0.736-0.54v-0.195c0-0.883-0.491-1.373-1.717-1.373
	c-1.25,0-1.938,0.515-1.938,1.691l-3.309-0.024c-0.05-2.673,2.108-4.119,5.393-4.119c2.992,0,4.88,0.932,4.88,3.579V36.577z
	 M160.946,34.198c-0.271,0.099-0.491,0.221-1.742,0.466c-1.15,0.221-2.009,0.417-2.009,1.423c0,0.956,0.709,1.373,1.74,1.373
	c1.177,0,2.011-0.54,2.011-1.766V34.198z"/>
<path fill="#002A3A" d="M174.481,39.544c-0.489,0.098-1.3,0.195-2.156,0.195c-1.398,0-2.869-0.195-3.482-1.005
	c-0.441-0.588-0.489-1.226-0.489-2.403v-6.079h-2.257v-2.428h2.257v-3.972l3.578-0.711v4.683h2.55v2.428h-2.55v5.173
	c0,0.662,0.074,0.98,0.295,1.201c0.246,0.27,0.688,0.368,1.349,0.368c0.417,0,0.735-0.025,0.906-0.049V39.544z"/>
<path fill="#002A3A" d="M180.565,26.329h-3.604v-3.506h3.604V26.329z M180.565,39.494h-3.604v-11.67h3.604V39.494z"/>
<path fill="#002A3A" d="M189.073,27.53c3.678,0,6.203,2.23,6.203,6.179c0,3.946-2.525,6.079-6.203,6.079s-6.179-2.133-6.179-6.079
	C182.895,29.761,185.396,27.53,189.073,27.53z M189.073,37.067c1.644,0,2.573-1.274,2.573-3.407c0-2.183-0.906-3.434-2.573-3.434
	s-2.549,1.275-2.549,3.434C186.524,35.816,187.431,37.067,189.073,37.067z"/>
<path fill="#002A3A" d="M208.74,39.494h-3.58V33.61c0-1.789-0.074-3.04-1.838-3.04c-1.496,0-2.134,1.177-2.134,2.771v6.153h-3.579
	v-11.67h3.529v1.446c0.563-0.956,1.839-1.74,3.506-1.74c1.35,0,2.379,0.368,3.066,1.128c0.734,0.833,1.029,1.643,1.029,4.217V39.494
	z"/>
<path fill="#002A3A" d="M221.713,36.577c0,0.735,0.097,0.98,0.613,0.98h0.171v2.06c-0.538,0.098-1.079,0.147-1.667,0.147
	c-1.029,0-1.987-0.196-2.23-1.055h-0.024c-0.541,0.589-1.399,1.078-3.288,1.078c-2.572,0-4.214-1.323-4.214-3.751
	c0-2.23,1.691-3.113,4.168-3.506l2.426-0.392c0.638-0.099,0.737-0.172,0.737-0.54v-0.195c0-0.883-0.492-1.373-1.718-1.373
	c-1.25,0-1.938,0.515-1.938,1.691l-3.309-0.024c-0.05-2.673,2.108-4.119,5.393-4.119c2.992,0,4.88,0.932,4.88,3.579V36.577z
	 M218.379,34.198c-0.271,0.099-0.491,0.221-1.741,0.466c-1.151,0.221-2.01,0.417-2.01,1.423c0,0.956,0.709,1.373,1.738,1.373
	c1.18,0,2.013-0.54,2.013-1.766V34.198z"/>
<path fill="#002A3A" d="M228.655,39.494h-3.58V22.823h3.58V39.494z"/>
<path fill="#002A3A" d="M73.203,56.221c-0.857-0.784-2.011-1.274-3.162-1.274c-0.81,0-1.521,0.27-1.521,0.858
	c0,0.612,0.54,0.784,1.742,1.029l1.838,0.393c1.888,0.392,3.604,1.152,3.604,3.383c0,2.722-2.379,4.021-5.15,4.021
	c-2.672,0-4.927-1.176-5.98-2.622l2.255-1.815c0.712,0.98,2.108,1.79,3.726,1.79c1.202,0,1.814-0.392,1.814-1.029
	c0-0.662-0.71-0.784-1.494-0.932l-1.84-0.367c-1.177-0.221-2.182-0.614-2.894-1.227c-0.637-0.54-1.005-1.299-1.005-2.279
	c0-2.771,2.672-3.776,4.977-3.776c2.184,0,3.923,0.809,5.101,1.938L73.203,56.221z"/>
<path fill="#002A3A" d="M77.938,52.666h3.58v5.885c0,1.789,0.024,3.04,1.788,3.04c1.446,0,2.084-1.177,2.084-2.771v-6.153h3.579
	v11.67H85.44V62.89c-0.563,0.956-1.813,1.74-3.457,1.74c-1.349,0-2.328-0.367-3.016-1.127c-0.735-0.834-1.029-1.643-1.029-4.217
	V52.666z"/>
<path fill="#002A3A" d="M95.838,51.171h-3.604v-3.506h3.604V51.171z M95.838,64.336h-3.604v-11.67h3.604V64.336z"/>
<path fill="#002A3A" d="M106.578,56.221c-0.856-0.784-2.011-1.274-3.161-1.274c-0.811,0-1.521,0.27-1.521,0.858
	c0,0.612,0.539,0.784,1.741,1.029l1.838,0.393c1.889,0.392,3.605,1.152,3.605,3.383c0,2.722-2.38,4.021-5.151,4.021
	c-2.671,0-4.926-1.176-5.98-2.622l2.255-1.815c0.712,0.98,2.108,1.79,3.726,1.79c1.202,0,1.815-0.392,1.815-1.029
	c0-0.662-0.711-0.784-1.494-0.932l-1.84-0.367c-1.178-0.221-2.182-0.614-2.895-1.227c-0.636-0.54-1.005-1.299-1.005-2.279
	c0-2.771,2.672-3.776,4.977-3.776c2.184,0,3.924,0.809,5.101,1.938L106.578,56.221z"/>
<path fill="#002A3A" d="M118.937,56.221c-0.856-0.784-2.009-1.274-3.161-1.274c-0.811,0-1.52,0.27-1.52,0.858
	c0,0.612,0.538,0.784,1.74,1.029l1.838,0.393c1.888,0.392,3.604,1.152,3.604,3.383c0,2.722-2.377,4.021-5.148,4.021
	c-2.672,0-4.928-1.176-5.982-2.622l2.257-1.815c0.71,0.98,2.108,1.79,3.726,1.79c1.2,0,1.813-0.392,1.813-1.029
	c0-0.662-0.709-0.784-1.495-0.932l-1.839-0.367c-1.176-0.221-2.181-0.614-2.893-1.227c-0.638-0.54-1.005-1.299-1.005-2.279
	c0-2.771,2.672-3.776,4.977-3.776c2.184,0,3.922,0.809,5.101,1.938L118.937,56.221z"/>
<path fill="#002A3A" d="M134.534,61.86c-0.688,0.98-2.379,2.77-5.589,2.77c-3.434,0-6.057-2.255-6.057-6.177
	c0-3.654,2.502-6.081,5.982-6.081c3.85,0,5.81,2.771,5.81,6.325c0,0.245,0,0.515-0.025,0.736h-8.31
	c0.122,1.274,1.054,2.377,2.819,2.377c1.568,0,2.502-0.932,2.894-1.618L134.534,61.86z M126.346,57.129h4.88
	c-0.075-1.349-0.934-2.281-2.38-2.281C127.449,54.848,126.396,55.902,126.346,57.129z"/>
<path fill="#04293C" d="M54.64,4.839H37.425c0.025,0.198,0.062,0.394,0.062,0.599c0,0.204-0.037,0.399-0.062,0.598H54.64
	c-0.024-0.198-0.062-0.394-0.062-0.598C54.577,5.232,54.615,5.037,54.64,4.839z"/>
<path fill="#04293C" d="M5.437,54.578c0.205,0,0.401,0.036,0.599,0.06V37.426c-0.197,0.023-0.394,0.061-0.599,0.061
	c-0.204,0-0.398-0.037-0.597-0.061v17.212C5.038,54.614,5.232,54.578,5.437,54.578z"/>
<path fill="#04293C" d="M33.099,27.552V10.363c-0.199,0.022-0.394,0.06-0.597,0.06c-0.206,0-0.401-0.037-0.6-0.06v17.188
	c-0.904,0.108-1.736,0.458-2.424,0.985c-0.105,0.08-0.209,0.164-0.305,0.252c-0.068,0.061-0.134,0.122-0.197,0.186
	c-0.771,0.771-1.288,1.79-1.424,2.928H10.363c0.023,0.198,0.059,0.394,0.059,0.598c0,0.205-0.035,0.4-0.059,0.599h17.189
	c0.283,2.382,2.246,4.247,4.672,4.38c0.092,0.005,0.184,0.008,0.277,0.008c0.012,0,0.022-0.001,0.037-0.001
	c0.155-0.002,0.311-0.01,0.466-0.025c0.002,0,0.004,0,0.007,0c1.073-0.109,2.046-0.56,2.809-1.24
	c0.011-0.01,0.021-0.019,0.032-0.029c0.029-0.025,0.057-0.053,0.084-0.079c0.029-0.028,0.061-0.057,0.089-0.086
	c0.013-0.011,0.021-0.022,0.034-0.034c0.044-0.046,0.089-0.092,0.131-0.139c0.009-0.009,0.016-0.018,0.023-0.025
	c0.791-0.883,1.273-2.049,1.273-3.327C37.487,29.949,35.571,27.848,33.099,27.552z"/>
<path fill="#5298BD" d="M5.437,27.515c-2.752,0-4.985,2.232-4.985,4.985c0,2.754,2.233,4.986,4.985,4.986
	c2.754,0,4.985-2.232,4.985-4.986C10.422,29.747,8.19,27.515,5.437,27.515L5.437,27.515z"/>
<path fill="#5298BD" d="M59.563,0.451c-2.753,0-4.986,2.232-4.986,4.986c0,2.753,2.233,4.985,4.986,4.985
	c2.756,0,4.985-2.232,4.985-4.985C64.549,2.684,62.319,0.451,59.563,0.451L59.563,0.451z"/>
<path fill="#C95B40" d="M32.502,0.451c-2.755,0-4.986,2.231-4.986,4.986c0,2.753,2.231,4.985,4.986,4.985
	c2.752,0,4.985-2.232,4.985-4.985C37.487,2.683,35.254,0.451,32.502,0.451L32.502,0.451z"/>
<path fill="#C95B40" d="M5.437,54.578c-2.752,0-4.985,2.232-4.985,4.985c0,2.754,2.233,4.986,4.985,4.986
	c2.754,0,4.985-2.232,4.985-4.986C10.422,56.811,8.19,54.578,5.437,54.578L5.437,54.578z"/>
<rect id="_x3C_Slice_x3E__2_" fill="none" width="287" height="65"/>
</svg>
